# xmcd
# 
# Track frame offsets:
#     150
#     13111
#     29666
#     46660
#     63353
#     79218
#     94611
#     109560
#     122984
#     139743
#     154581
#     168675
# 
# Disc length: 2466
# 
# Revision: 4
# Processed by: cddbd v1.5.2PL0 Copyright (c) Steve Scherf et al.
# Submitted via: fre:ac v1.0.31
# 
DISCID=9909a00c
DTITLE=Emmylou Harris - Old Yellow Moon
DYEAR=2013
DGENRE=Country
TTITLE0=Hanging Up My Heart
TTITLE1=Invitation to the Blues
TTITLE2=Spanish Dancer
TTITLE3=Open Season on My Heart
TTITLE4=Chase the Feeling
TTITLE5=Black Caffeine
TTITLE6=Dreaming My Dreams
TTITLE7=Bluebird Wine
TTITLE8=Back When We Were Beautiful
TTITLE9=Here We Are
TTITLE10=Bull Rider
TTITLE11=Old Yellow Moon
EXTD=
EXTT0=
EXTT1=
EXTT2=
EXTT3=
EXTT4=
EXTT5=
EXTT6=
EXTT7=
EXTT8=
EXTT9=
EXTT10=
EXTT11=
PLAYORDER=
